<mxfile host="Electron" modified="2023-08-29T13:13:50.280Z" agent="Mozilla/5.0 (Macintosh; Intel Mac OS X 10_15_7) AppleWebKit/537.36 (KHTML, like Gecko) draw.io/21.6.1 Chrome/112.0.5615.204 Electron/24.6.1 Safari/537.36" etag="261nAveVj5gEfuFwMI6i" version="21.6.1" type="device" pages="2">
  <diagram name="Page-1" id="67ASelDbU-JqlVoD8rDe">
    <mxGraphModel dx="1414" dy="1033" grid="1" gridSize="10" guides="1" tooltips="1" connect="1" arrows="1" fold="1" page="1" pageScale="1" pageWidth="827" pageHeight="1169" math="0" shadow="0">
      <root>
        <mxCell id="0" />
        <mxCell id="1" parent="0" />
        <mxCell id="lZ0pv3dm7adVu-ms15id-41" style="edgeStyle=orthogonalEdgeStyle;rounded=0;orthogonalLoop=1;jettySize=auto;html=1;entryX=1;entryY=0.5;entryDx=0;entryDy=0;entryPerimeter=0;" edge="1" parent="1" source="lZ0pv3dm7adVu-ms15id-10" target="lZ0pv3dm7adVu-ms15id-12">
          <mxGeometry relative="1" as="geometry">
            <mxPoint x="354" y="584" as="sourcePoint" />
            <mxPoint x="403" y="676" as="targetPoint" />
            <Array as="points">
              <mxPoint x="455" y="774" />
            </Array>
          </mxGeometry>
        </mxCell>
        <mxCell id="lZ0pv3dm7adVu-ms15id-6" value="" style="endArrow=none;html=1;rounded=0;strokeWidth=5;" edge="1" parent="1">
          <mxGeometry width="50" height="50" relative="1" as="geometry">
            <mxPoint x="240" y="520" as="sourcePoint" />
            <mxPoint x="510" y="520" as="targetPoint" />
          </mxGeometry>
        </mxCell>
        <mxCell id="lZ0pv3dm7adVu-ms15id-40" style="edgeStyle=orthogonalEdgeStyle;rounded=0;orthogonalLoop=1;jettySize=auto;html=1;exitX=1;exitY=0.5;exitDx=0;exitDy=0;exitPerimeter=0;entryX=0.529;entryY=0.01;entryDx=0;entryDy=0;entryPerimeter=0;endArrow=none;endFill=0;" edge="1" parent="1" source="lZ0pv3dm7adVu-ms15id-1" target="lZ0pv3dm7adVu-ms15id-10">
          <mxGeometry relative="1" as="geometry">
            <Array as="points">
              <mxPoint x="456" y="574" />
            </Array>
          </mxGeometry>
        </mxCell>
        <mxCell id="lZ0pv3dm7adVu-ms15id-1" value="&lt;span style=&quot;background-color: rgb(255, 255, 255);&quot;&gt;Nginx&lt;/span&gt;" style="sketch=0;points=[[0,0,0],[0.25,0,0],[0.5,0,0],[0.75,0,0],[1,0,0],[0,1,0],[0.25,1,0],[0.5,1,0],[0.75,1,0],[1,1,0],[0,0.25,0],[0,0.5,0],[0,0.75,0],[1,0.25,0],[1,0.5,0],[1,0.75,0]];outlineConnect=0;fontColor=#232F3E;gradientColor=#F78E04;gradientDirection=north;fillColor=#D05C17;strokeColor=#ffffff;dashed=0;verticalLabelPosition=bottom;verticalAlign=top;align=center;html=1;fontSize=12;fontStyle=0;aspect=fixed;shape=mxgraph.aws4.resourceIcon;resIcon=mxgraph.aws4.compute;" vertex="1" parent="1">
          <mxGeometry x="296" y="550" width="48" height="48" as="geometry" />
        </mxCell>
        <mxCell id="lZ0pv3dm7adVu-ms15id-7" value="" style="endArrow=none;html=1;rounded=0;entryX=0.5;entryY=0;entryDx=0;entryDy=0;entryPerimeter=0;" edge="1" parent="1" target="lZ0pv3dm7adVu-ms15id-1">
          <mxGeometry width="50" height="50" relative="1" as="geometry">
            <mxPoint x="320" y="520" as="sourcePoint" />
            <mxPoint x="300" y="400" as="targetPoint" />
          </mxGeometry>
        </mxCell>
        <mxCell id="lZ0pv3dm7adVu-ms15id-12" value="DNS Service" style="sketch=0;points=[[0,0,0],[0.25,0,0],[0.5,0,0],[0.75,0,0],[1,0,0],[0,1,0],[0.25,1,0],[0.5,1,0],[0.75,1,0],[1,1,0],[0,0.25,0],[0,0.5,0],[0,0.75,0],[1,0.25,0],[1,0.5,0],[1,0.75,0]];outlineConnect=0;fontColor=#232F3E;gradientColor=#945DF2;gradientDirection=north;fillColor=#5A30B5;strokeColor=#ffffff;dashed=0;verticalLabelPosition=bottom;verticalAlign=top;align=center;html=1;fontSize=12;fontStyle=0;aspect=fixed;shape=mxgraph.aws4.resourceIcon;resIcon=mxgraph.aws4.route_53;" vertex="1" parent="1">
          <mxGeometry x="296" y="750" width="48" height="48" as="geometry" />
        </mxCell>
        <mxCell id="lZ0pv3dm7adVu-ms15id-18" value="AWS Cloud" style="points=[[0,0],[0.25,0],[0.5,0],[0.75,0],[1,0],[1,0.25],[1,0.5],[1,0.75],[1,1],[0.75,1],[0.5,1],[0.25,1],[0,1],[0,0.75],[0,0.5],[0,0.25]];outlineConnect=0;gradientColor=none;html=1;whiteSpace=wrap;fontSize=12;fontStyle=0;container=1;pointerEvents=0;collapsible=0;recursiveResize=0;shape=mxgraph.aws4.group;grIcon=mxgraph.aws4.group_aws_cloud_alt;strokeColor=#232F3E;fillColor=none;verticalAlign=top;align=left;spacingLeft=30;fontColor=#232F3E;dashed=0;" vertex="1" parent="1">
          <mxGeometry x="188" y="410" width="432" height="410" as="geometry" />
        </mxCell>
        <mxCell id="lZ0pv3dm7adVu-ms15id-11" value="IAM Permissions" style="sketch=0;points=[[0,0,0],[0.25,0,0],[0.5,0,0],[0.75,0,0],[1,0,0],[0,1,0],[0.25,1,0],[0.5,1,0],[0.75,1,0],[1,1,0],[0,0.25,0],[0,0.5,0],[0,0.75,0],[1,0.25,0],[1,0.5,0],[1,0.75,0]];outlineConnect=0;fontColor=#232F3E;gradientColor=#F54749;gradientDirection=north;fillColor=#C7131F;strokeColor=#ffffff;dashed=0;verticalLabelPosition=bottom;verticalAlign=top;align=center;html=1;fontSize=12;fontStyle=0;aspect=fixed;shape=mxgraph.aws4.resourceIcon;resIcon=mxgraph.aws4.identity_and_access_management;" vertex="1" parent="lZ0pv3dm7adVu-ms15id-18">
          <mxGeometry x="351" y="251" width="49" height="49" as="geometry" />
        </mxCell>
        <mxCell id="lZ0pv3dm7adVu-ms15id-10" value="&lt;span style=&quot;background-color: rgb(255, 255, 255);&quot;&gt;r53 - devops&lt;/span&gt;" style="sketch=0;outlineConnect=0;fontColor=#232F3E;gradientColor=none;fillColor=#BF0816;strokeColor=none;dashed=0;verticalLabelPosition=bottom;verticalAlign=top;align=center;html=1;fontSize=12;fontStyle=0;aspect=fixed;pointerEvents=1;shape=mxgraph.aws4.role;" vertex="1" parent="lZ0pv3dm7adVu-ms15id-18">
          <mxGeometry x="246" y="263.5" width="42.55" height="24" as="geometry" />
        </mxCell>
        <mxCell id="lZ0pv3dm7adVu-ms15id-32" style="edgeStyle=orthogonalEdgeStyle;rounded=0;orthogonalLoop=1;jettySize=auto;html=1;exitX=0;exitY=0.5;exitDx=0;exitDy=0;exitPerimeter=0;endArrow=none;endFill=0;" edge="1" parent="lZ0pv3dm7adVu-ms15id-18" source="lZ0pv3dm7adVu-ms15id-11" target="lZ0pv3dm7adVu-ms15id-10">
          <mxGeometry relative="1" as="geometry" />
        </mxCell>
        <mxCell id="lZ0pv3dm7adVu-ms15id-24" value="Letsencrypt" style="sketch=0;outlineConnect=0;fontColor=#232F3E;gradientColor=none;fillColor=#232F3D;strokeColor=none;dashed=0;verticalLabelPosition=bottom;verticalAlign=top;align=center;html=1;fontSize=12;fontStyle=0;aspect=fixed;pointerEvents=1;shape=mxgraph.aws4.ssl_padlock;" vertex="1" parent="1">
          <mxGeometry x="110" y="751" width="47.21" height="46" as="geometry" />
        </mxCell>
        <mxCell id="lZ0pv3dm7adVu-ms15id-2" value="Internet GW" style="sketch=0;outlineConnect=0;fontColor=#232F3E;gradientColor=none;fillColor=#4D27AA;strokeColor=default;dashed=0;verticalLabelPosition=bottom;verticalAlign=top;align=center;html=1;fontSize=12;fontStyle=0;aspect=fixed;pointerEvents=1;shape=mxgraph.aws4.internet_gateway;" vertex="1" parent="1">
          <mxGeometry x="481" y="420" width="48" height="48" as="geometry" />
        </mxCell>
        <mxCell id="lZ0pv3dm7adVu-ms15id-26" value="Lab" style="points=[[0,0],[0.25,0],[0.5,0],[0.75,0],[1,0],[1,0.25],[1,0.5],[1,0.75],[1,1],[0.75,1],[0.5,1],[0.25,1],[0,1],[0,0.75],[0,0.5],[0,0.25]];outlineConnect=0;gradientColor=none;html=1;whiteSpace=wrap;fontSize=12;fontStyle=0;container=1;pointerEvents=0;collapsible=0;recursiveResize=0;shape=mxgraph.aws4.group;grIcon=mxgraph.aws4.group_on_premise;strokeColor=#5A6C86;fillColor=none;verticalAlign=top;align=left;spacingLeft=30;fontColor=#5A6C86;dashed=0;" vertex="1" parent="1">
          <mxGeometry x="188" y="300" width="432" height="70" as="geometry" />
        </mxCell>
        <mxCell id="lZ0pv3dm7adVu-ms15id-27" value="Ansible" style="rounded=1;whiteSpace=wrap;html=1;" vertex="1" parent="lZ0pv3dm7adVu-ms15id-26">
          <mxGeometry x="201" y="10" width="50" height="50" as="geometry" />
        </mxCell>
        <mxCell id="lZ0pv3dm7adVu-ms15id-34" style="edgeStyle=orthogonalEdgeStyle;rounded=0;orthogonalLoop=1;jettySize=auto;html=1;exitX=0;exitY=0.5;exitDx=0;exitDy=0;exitPerimeter=0;endArrow=classic;endFill=1;startArrow=classic;startFill=1;" edge="1" parent="1" source="lZ0pv3dm7adVu-ms15id-1" target="lZ0pv3dm7adVu-ms15id-24">
          <mxGeometry relative="1" as="geometry">
            <mxPoint x="330" y="608" as="sourcePoint" />
            <mxPoint x="330" y="760" as="targetPoint" />
          </mxGeometry>
        </mxCell>
        <mxCell id="lZ0pv3dm7adVu-ms15id-36" style="edgeStyle=orthogonalEdgeStyle;rounded=0;orthogonalLoop=1;jettySize=auto;html=1;exitX=0;exitY=0.5;exitDx=0;exitDy=0;exitPerimeter=0;endArrow=none;endFill=0;startArrow=classic;startFill=1;" edge="1" parent="1" source="lZ0pv3dm7adVu-ms15id-12" target="lZ0pv3dm7adVu-ms15id-24">
          <mxGeometry relative="1" as="geometry">
            <mxPoint x="461" y="759" as="sourcePoint" />
            <mxPoint x="461" y="654" as="targetPoint" />
          </mxGeometry>
        </mxCell>
        <mxCell id="lZ0pv3dm7adVu-ms15id-37" value="Request / Issue Certificate" style="text;html=1;align=center;verticalAlign=middle;resizable=0;points=[];autosize=1;strokeColor=none;fillColor=none;" vertex="1" parent="1">
          <mxGeometry x="125" y="550" width="160" height="30" as="geometry" />
        </mxCell>
        <mxCell id="lZ0pv3dm7adVu-ms15id-39" value="Verify Challenge" style="text;html=1;align=center;verticalAlign=middle;resizable=0;points=[];autosize=1;strokeColor=none;fillColor=none;" vertex="1" parent="1">
          <mxGeometry x="170" y="751" width="110" height="30" as="geometry" />
        </mxCell>
        <mxCell id="lZ0pv3dm7adVu-ms15id-3" value="&lt;font color=&quot;#000000&quot;&gt;AWS Virtual Private Cloud&lt;/font&gt;" style="points=[[0,0],[0.25,0],[0.5,0],[0.75,0],[1,0],[1,0.25],[1,0.5],[1,0.75],[1,1],[0.75,1],[0.5,1],[0.25,1],[0,1],[0,0.75],[0,0.5],[0,0.25]];outlineConnect=0;gradientColor=none;html=1;whiteSpace=wrap;fontSize=12;fontStyle=0;container=1;pointerEvents=0;collapsible=0;recursiveResize=0;shape=mxgraph.aws4.group;grIcon=mxgraph.aws4.group_vpc;strokeColor=#248814;fillColor=none;verticalAlign=top;align=left;spacingLeft=30;fontColor=#AAB7B8;dashed=0;" vertex="1" parent="1">
          <mxGeometry x="220" y="450" width="330" height="200" as="geometry" />
        </mxCell>
        <mxCell id="lZ0pv3dm7adVu-ms15id-17" value="Challenge DNS-01" style="text;html=1;align=center;verticalAlign=middle;resizable=0;points=[];autosize=1;strokeColor=none;fillColor=none;" vertex="1" parent="lZ0pv3dm7adVu-ms15id-3">
          <mxGeometry x="128" y="100" width="120" height="30" as="geometry" />
        </mxCell>
      </root>
    </mxGraphModel>
  </diagram>
  <diagram id="D_0UMnjxrWeCdcP4YXsn" name="Page-2">
    <mxGraphModel dx="1131" dy="826" grid="1" gridSize="10" guides="1" tooltips="1" connect="1" arrows="1" fold="1" page="1" pageScale="1" pageWidth="827" pageHeight="1169" math="0" shadow="0">
      <root>
        <mxCell id="0" />
        <mxCell id="1" parent="0" />
        <mxCell id="Xdlk1J8CxgUtdhjCWf6p-2" value="" style="endArrow=none;html=1;rounded=0;strokeWidth=5;" edge="1" parent="1">
          <mxGeometry width="50" height="50" relative="1" as="geometry">
            <mxPoint x="240" y="520" as="sourcePoint" />
            <mxPoint x="510" y="520" as="targetPoint" />
          </mxGeometry>
        </mxCell>
        <mxCell id="Xdlk1J8CxgUtdhjCWf6p-5" value="" style="endArrow=none;html=1;rounded=0;entryX=0.5;entryY=0;entryDx=0;entryDy=0;entryPerimeter=0;" edge="1" parent="1" target="Xdlk1J8CxgUtdhjCWf6p-4">
          <mxGeometry width="50" height="50" relative="1" as="geometry">
            <mxPoint x="374" y="520" as="sourcePoint" />
            <mxPoint x="300" y="400" as="targetPoint" />
          </mxGeometry>
        </mxCell>
        <mxCell id="Xdlk1J8CxgUtdhjCWf6p-7" value="AWS Cloud" style="points=[[0,0],[0.25,0],[0.5,0],[0.75,0],[1,0],[1,0.25],[1,0.5],[1,0.75],[1,1],[0.75,1],[0.5,1],[0.25,1],[0,1],[0,0.75],[0,0.5],[0,0.25]];outlineConnect=0;gradientColor=none;html=1;whiteSpace=wrap;fontSize=12;fontStyle=0;container=1;pointerEvents=0;collapsible=0;recursiveResize=0;shape=mxgraph.aws4.group;grIcon=mxgraph.aws4.group_aws_cloud_alt;strokeColor=#232F3E;fillColor=none;verticalAlign=top;align=left;spacingLeft=30;fontColor=#232F3E;dashed=0;" vertex="1" parent="1">
          <mxGeometry x="188" y="410" width="392" height="270" as="geometry" />
        </mxCell>
        <mxCell id="Xdlk1J8CxgUtdhjCWf6p-12" value="Internet GW" style="sketch=0;outlineConnect=0;fontColor=#232F3E;gradientColor=none;fillColor=#4D27AA;strokeColor=default;dashed=0;verticalLabelPosition=bottom;verticalAlign=top;align=center;html=1;fontSize=12;fontStyle=0;aspect=fixed;pointerEvents=1;shape=mxgraph.aws4.internet_gateway;" vertex="1" parent="1">
          <mxGeometry x="481" y="420" width="48" height="48" as="geometry" />
        </mxCell>
        <mxCell id="Xdlk1J8CxgUtdhjCWf6p-13" value="Lab" style="points=[[0,0],[0.25,0],[0.5,0],[0.75,0],[1,0],[1,0.25],[1,0.5],[1,0.75],[1,1],[0.75,1],[0.5,1],[0.25,1],[0,1],[0,0.75],[0,0.5],[0,0.25]];outlineConnect=0;gradientColor=none;html=1;whiteSpace=wrap;fontSize=12;fontStyle=0;container=1;pointerEvents=0;collapsible=0;recursiveResize=0;shape=mxgraph.aws4.group;grIcon=mxgraph.aws4.group_on_premise;strokeColor=#5A6C86;fillColor=none;verticalAlign=top;align=left;spacingLeft=30;fontColor=#5A6C86;dashed=0;" vertex="1" parent="1">
          <mxGeometry x="188" y="300" width="392" height="70" as="geometry" />
        </mxCell>
        <mxCell id="Xdlk1J8CxgUtdhjCWf6p-14" value="Ansible" style="rounded=1;whiteSpace=wrap;html=1;" vertex="1" parent="Xdlk1J8CxgUtdhjCWf6p-13">
          <mxGeometry x="162" y="10" width="50" height="50" as="geometry" />
        </mxCell>
        <mxCell id="Xdlk1J8CxgUtdhjCWf6p-19" value="&lt;font color=&quot;#000000&quot;&gt;AWS Virtual Private Cloud&lt;/font&gt;" style="points=[[0,0],[0.25,0],[0.5,0],[0.75,0],[1,0],[1,0.25],[1,0.5],[1,0.75],[1,1],[0.75,1],[0.5,1],[0.25,1],[0,1],[0,0.75],[0,0.5],[0,0.25]];outlineConnect=0;gradientColor=none;html=1;whiteSpace=wrap;fontSize=12;fontStyle=0;container=1;pointerEvents=0;collapsible=0;recursiveResize=0;shape=mxgraph.aws4.group;grIcon=mxgraph.aws4.group_vpc;strokeColor=#248814;fillColor=none;verticalAlign=top;align=left;spacingLeft=30;fontColor=#AAB7B8;dashed=0;" vertex="1" parent="1">
          <mxGeometry x="220" y="450" width="330" height="200" as="geometry" />
        </mxCell>
        <mxCell id="Xdlk1J8CxgUtdhjCWf6p-4" value="&lt;span style=&quot;background-color: rgb(255, 255, 255);&quot;&gt;Nginx&lt;/span&gt;" style="sketch=0;points=[[0,0,0],[0.25,0,0],[0.5,0,0],[0.75,0,0],[1,0,0],[0,1,0],[0.25,1,0],[0.5,1,0],[0.75,1,0],[1,1,0],[0,0.25,0],[0,0.5,0],[0,0.75,0],[1,0.25,0],[1,0.5,0],[1,0.75,0]];outlineConnect=0;fontColor=#232F3E;gradientColor=#F78E04;gradientDirection=north;fillColor=#D05C17;strokeColor=#ffffff;dashed=0;verticalLabelPosition=bottom;verticalAlign=top;align=center;html=1;fontSize=12;fontStyle=0;aspect=fixed;shape=mxgraph.aws4.resourceIcon;resIcon=mxgraph.aws4.compute;" vertex="1" parent="Xdlk1J8CxgUtdhjCWf6p-19">
          <mxGeometry x="130" y="100" width="48" height="48" as="geometry" />
        </mxCell>
        <mxCell id="Xdlk1J8CxgUtdhjCWf6p-21" value="Public-Network" style="text;html=1;align=center;verticalAlign=middle;resizable=0;points=[];autosize=1;strokeColor=none;fillColor=none;" vertex="1" parent="Xdlk1J8CxgUtdhjCWf6p-19">
          <mxGeometry x="14" y="44" width="100" height="30" as="geometry" />
        </mxCell>
        <mxCell id="Xdlk1J8CxgUtdhjCWf6p-23" style="edgeStyle=orthogonalEdgeStyle;rounded=0;orthogonalLoop=1;jettySize=auto;html=1;exitX=1;exitY=0.5;exitDx=0;exitDy=0;entryX=1;entryY=0.5;entryDx=0;entryDy=0;entryPerimeter=0;curved=1;strokeWidth=2;fillColor=#d5e8d4;strokeColor=#82b366;" edge="1" parent="1" source="Xdlk1J8CxgUtdhjCWf6p-14" target="Xdlk1J8CxgUtdhjCWf6p-4">
          <mxGeometry relative="1" as="geometry">
            <Array as="points">
              <mxPoint x="440" y="335" />
              <mxPoint x="440" y="574" />
            </Array>
          </mxGeometry>
        </mxCell>
      </root>
    </mxGraphModel>
  </diagram>
</mxfile>
